<mxfile host="app.diagrams.net" modified="2023-11-01T14:02:34.157Z" agent="Mozilla/5.0 (Windows NT 10.0; Win64; x64) AppleWebKit/537.36 (KHTML, like Gecko) Chrome/118.0.0.0 Safari/537.36" etag="VcScqsYSr0ofKnEN9gO0" version="22.0.8" type="device">
  <diagram id="mCyr1kptdM3YggUfpTlr" name="Page-1">
    <mxGraphModel dx="1375" dy="1862" grid="1" gridSize="10" guides="1" tooltips="1" connect="1" arrows="1" fold="1" page="1" pageScale="1" pageWidth="850" pageHeight="1100" math="0" shadow="0">
      <root>
        <mxCell id="0" />
        <mxCell id="1" parent="0" />
        <mxCell id="RMtQjLJvcsIaxz_irh20-2" value="User" style="swimlane;fontStyle=0;childLayout=stackLayout;horizontal=1;startSize=26;fillColor=none;horizontalStack=0;resizeParent=1;resizeParentMax=0;resizeLast=0;collapsible=1;marginBottom=0;" parent="1" vertex="1">
          <mxGeometry x="280" y="-970" width="140" height="130" as="geometry">
            <mxRectangle x="280" y="-970" width="70" height="30" as="alternateBounds" />
          </mxGeometry>
        </mxCell>
        <mxCell id="RMtQjLJvcsIaxz_irh20-3" value="name" style="text;strokeColor=none;fillColor=none;align=left;verticalAlign=top;spacingLeft=4;spacingRight=4;overflow=hidden;rotatable=0;points=[[0,0.5],[1,0.5]];portConstraint=eastwest;" parent="RMtQjLJvcsIaxz_irh20-2" vertex="1">
          <mxGeometry y="26" width="140" height="26" as="geometry" />
        </mxCell>
        <mxCell id="RMtQjLJvcsIaxz_irh20-5" value="age" style="text;strokeColor=none;fillColor=none;align=left;verticalAlign=top;spacingLeft=4;spacingRight=4;overflow=hidden;rotatable=0;points=[[0,0.5],[1,0.5]];portConstraint=eastwest;" parent="RMtQjLJvcsIaxz_irh20-2" vertex="1">
          <mxGeometry y="52" width="140" height="26" as="geometry" />
        </mxCell>
        <mxCell id="RMtQjLJvcsIaxz_irh20-4" value="email" style="text;strokeColor=none;fillColor=none;align=left;verticalAlign=top;spacingLeft=4;spacingRight=4;overflow=hidden;rotatable=0;points=[[0,0.5],[1,0.5]];portConstraint=eastwest;" parent="RMtQjLJvcsIaxz_irh20-2" vertex="1">
          <mxGeometry y="78" width="140" height="26" as="geometry" />
        </mxCell>
        <mxCell id="RMtQjLJvcsIaxz_irh20-6" value="role" style="text;strokeColor=none;fillColor=none;align=left;verticalAlign=top;spacingLeft=4;spacingRight=4;overflow=hidden;rotatable=0;points=[[0,0.5],[1,0.5]];portConstraint=eastwest;" parent="RMtQjLJvcsIaxz_irh20-2" vertex="1">
          <mxGeometry y="104" width="140" height="26" as="geometry" />
        </mxCell>
        <mxCell id="RMtQjLJvcsIaxz_irh20-8" value="psych-emot state" style="swimlane;fontStyle=0;childLayout=stackLayout;horizontal=1;startSize=26;fillColor=none;horizontalStack=0;resizeParent=1;resizeParentMax=0;resizeLast=0;collapsible=1;marginBottom=0;" parent="1" vertex="1">
          <mxGeometry x="490" y="-1060" width="140" height="78" as="geometry">
            <mxRectangle x="520" y="-940" width="100" height="30" as="alternateBounds" />
          </mxGeometry>
        </mxCell>
        <mxCell id="RMtQjLJvcsIaxz_irh20-9" value="time" style="text;strokeColor=none;fillColor=none;align=left;verticalAlign=top;spacingLeft=4;spacingRight=4;overflow=hidden;rotatable=0;points=[[0,0.5],[1,0.5]];portConstraint=eastwest;" parent="RMtQjLJvcsIaxz_irh20-8" vertex="1">
          <mxGeometry y="26" width="140" height="26" as="geometry" />
        </mxCell>
        <mxCell id="on-PZeMUi1xkSiczZd_k-5" value="level" style="text;strokeColor=none;fillColor=none;align=left;verticalAlign=top;spacingLeft=4;spacingRight=4;overflow=hidden;rotatable=0;points=[[0,0.5],[1,0.5]];portConstraint=eastwest;" parent="RMtQjLJvcsIaxz_irh20-8" vertex="1">
          <mxGeometry y="52" width="140" height="26" as="geometry" />
        </mxCell>
        <mxCell id="RMtQjLJvcsIaxz_irh20-15" value="Consumer" style="swimlane;fontStyle=0;childLayout=stackLayout;horizontal=1;startSize=26;fillColor=none;horizontalStack=0;resizeParent=1;resizeParentMax=0;resizeLast=0;collapsible=1;marginBottom=0;" parent="1" vertex="1">
          <mxGeometry x="100" y="-1060" width="160" height="78" as="geometry" />
        </mxCell>
        <mxCell id="on-PZeMUi1xkSiczZd_k-28" value="psych-emot level" style="text;strokeColor=none;fillColor=none;align=left;verticalAlign=top;spacingLeft=4;spacingRight=4;overflow=hidden;rotatable=0;points=[[0,0.5],[1,0.5]];portConstraint=eastwest;" parent="RMtQjLJvcsIaxz_irh20-15" vertex="1">
          <mxGeometry y="26" width="160" height="26" as="geometry" />
        </mxCell>
        <mxCell id="on-PZeMUi1xkSiczZd_k-29" value="lighting level" style="text;strokeColor=none;fillColor=none;align=left;verticalAlign=top;spacingLeft=4;spacingRight=4;overflow=hidden;rotatable=0;points=[[0,0.5],[1,0.5]];portConstraint=eastwest;" parent="RMtQjLJvcsIaxz_irh20-15" vertex="1">
          <mxGeometry y="52" width="160" height="26" as="geometry" />
        </mxCell>
        <mxCell id="RMtQjLJvcsIaxz_irh20-18" value="" style="endArrow=none;html=1;startSize=12;startArrow=block;startFill=0;exitX=0.003;exitY=0.115;exitDx=0;exitDy=0;exitPerimeter=0;edgeStyle=orthogonalEdgeStyle;entryX=0.428;entryY=0.99;entryDx=0;entryDy=0;entryPerimeter=0;" parent="1" target="on-PZeMUi1xkSiczZd_k-29" edge="1">
          <mxGeometry relative="1" as="geometry">
            <mxPoint x="280.4200000000001" y="-923.91" as="sourcePoint" />
            <mxPoint x="80" y="-980" as="targetPoint" />
            <Array as="points">
              <mxPoint x="170" y="-924" />
              <mxPoint x="170" y="-980" />
              <mxPoint x="169" y="-980" />
            </Array>
          </mxGeometry>
        </mxCell>
        <mxCell id="RMtQjLJvcsIaxz_irh20-26" value="" style="endArrow=none;html=1;startSize=12;startArrow=open;startFill=0;entryX=1;entryY=0.5;entryDx=0;entryDy=0;exitX=0;exitY=0.5;exitDx=0;exitDy=0;" parent="1" source="RMtQjLJvcsIaxz_irh20-9" target="RMtQjLJvcsIaxz_irh20-3" edge="1">
          <mxGeometry relative="1" as="geometry">
            <mxPoint x="460.4200000000001" y="-960" as="sourcePoint" />
            <mxPoint x="460" y="-758.99" as="targetPoint" />
          </mxGeometry>
        </mxCell>
        <mxCell id="RMtQjLJvcsIaxz_irh20-27" value="*" style="edgeLabel;resizable=0;html=1;align=left;verticalAlign=bottom;" parent="RMtQjLJvcsIaxz_irh20-26" connectable="0" vertex="1">
          <mxGeometry x="-1" relative="1" as="geometry">
            <mxPoint x="-20" y="1" as="offset" />
          </mxGeometry>
        </mxCell>
        <mxCell id="RMtQjLJvcsIaxz_irh20-28" value="1" style="edgeLabel;resizable=0;html=1;align=right;verticalAlign=bottom;" parent="RMtQjLJvcsIaxz_irh20-26" connectable="0" vertex="1">
          <mxGeometry x="1" relative="1" as="geometry">
            <mxPoint x="10" y="-19" as="offset" />
          </mxGeometry>
        </mxCell>
        <mxCell id="RMtQjLJvcsIaxz_irh20-30" value="send" style="edgeLabel;html=1;align=center;verticalAlign=middle;resizable=0;points=[];" parent="RMtQjLJvcsIaxz_irh20-26" vertex="1" connectable="0">
          <mxGeometry x="0.1697" y="2" relative="1" as="geometry">
            <mxPoint y="-13" as="offset" />
          </mxGeometry>
        </mxCell>
        <mxCell id="on-PZeMUi1xkSiczZd_k-21" value="lighting" style="swimlane;fontStyle=0;childLayout=stackLayout;horizontal=1;startSize=26;fillColor=none;horizontalStack=0;resizeParent=1;resizeParentMax=0;resizeLast=0;collapsible=1;marginBottom=0;" parent="1" vertex="1">
          <mxGeometry x="490" y="-790" width="140" height="130" as="geometry">
            <mxRectangle x="520" y="-940" width="100" height="30" as="alternateBounds" />
          </mxGeometry>
        </mxCell>
        <mxCell id="on-PZeMUi1xkSiczZd_k-22" value="check time" style="text;strokeColor=none;fillColor=none;align=left;verticalAlign=top;spacingLeft=4;spacingRight=4;overflow=hidden;rotatable=0;points=[[0,0.5],[1,0.5]];portConstraint=eastwest;" parent="on-PZeMUi1xkSiczZd_k-21" vertex="1">
          <mxGeometry y="26" width="140" height="26" as="geometry" />
        </mxCell>
        <mxCell id="on-PZeMUi1xkSiczZd_k-23" value="level" style="text;strokeColor=none;fillColor=none;align=left;verticalAlign=top;spacingLeft=4;spacingRight=4;overflow=hidden;rotatable=0;points=[[0,0.5],[1,0.5]];portConstraint=eastwest;" parent="on-PZeMUi1xkSiczZd_k-21" vertex="1">
          <mxGeometry y="52" width="140" height="26" as="geometry" />
        </mxCell>
        <mxCell id="mB4jdyPRa3ee71fcsnOd-5" value="comfort" style="text;strokeColor=none;fillColor=none;align=left;verticalAlign=top;spacingLeft=4;spacingRight=4;overflow=hidden;rotatable=0;points=[[0,0.5],[1,0.5]];portConstraint=eastwest;" parent="on-PZeMUi1xkSiczZd_k-21" vertex="1">
          <mxGeometry y="78" width="140" height="26" as="geometry" />
        </mxCell>
        <mxCell id="mB4jdyPRa3ee71fcsnOd-6" value="choose lightig" style="text;strokeColor=none;fillColor=none;align=left;verticalAlign=top;spacingLeft=4;spacingRight=4;overflow=hidden;rotatable=0;points=[[0,0.5],[1,0.5]];portConstraint=eastwest;" parent="on-PZeMUi1xkSiczZd_k-21" vertex="1">
          <mxGeometry y="104" width="140" height="26" as="geometry" />
        </mxCell>
        <mxCell id="on-PZeMUi1xkSiczZd_k-36" value="send" style="edgeLabel;html=1;align=center;verticalAlign=middle;resizable=0;points=[];" parent="1" vertex="1" connectable="0">
          <mxGeometry x="460" y="-850" as="geometry">
            <mxPoint x="-16" y="18" as="offset" />
          </mxGeometry>
        </mxCell>
        <mxCell id="on-PZeMUi1xkSiczZd_k-38" value="" style="endArrow=none;html=1;startSize=12;startArrow=open;startFill=0;entryX=0.5;entryY=0;entryDx=0;entryDy=0;" parent="1" source="on-PZeMUi1xkSiczZd_k-5" target="on-PZeMUi1xkSiczZd_k-21" edge="1">
          <mxGeometry relative="1" as="geometry">
            <mxPoint x="585" y="-921" as="sourcePoint" />
            <mxPoint x="485" y="-921" as="targetPoint" />
          </mxGeometry>
        </mxCell>
        <mxCell id="on-PZeMUi1xkSiczZd_k-39" value="1" style="edgeLabel;resizable=0;html=1;align=left;verticalAlign=bottom;" parent="on-PZeMUi1xkSiczZd_k-38" connectable="0" vertex="1">
          <mxGeometry x="-1" relative="1" as="geometry">
            <mxPoint x="-15" y="35" as="offset" />
          </mxGeometry>
        </mxCell>
        <mxCell id="on-PZeMUi1xkSiczZd_k-40" value="1" style="edgeLabel;resizable=0;html=1;align=right;verticalAlign=bottom;" parent="on-PZeMUi1xkSiczZd_k-38" connectable="0" vertex="1">
          <mxGeometry x="1" relative="1" as="geometry">
            <mxPoint x="-6" y="-4" as="offset" />
          </mxGeometry>
        </mxCell>
        <mxCell id="on-PZeMUi1xkSiczZd_k-46" value="" style="endArrow=none;html=1;startSize=12;startArrow=open;startFill=0;entryX=1;entryY=0.5;entryDx=0;entryDy=0;exitX=0;exitY=0;exitDx=0;exitDy=0;" parent="1" source="on-PZeMUi1xkSiczZd_k-21" target="RMtQjLJvcsIaxz_irh20-4" edge="1">
          <mxGeometry relative="1" as="geometry">
            <mxPoint x="600" y="-882" as="sourcePoint" />
            <mxPoint x="600" y="-780" as="targetPoint" />
          </mxGeometry>
        </mxCell>
        <mxCell id="on-PZeMUi1xkSiczZd_k-47" value="*" style="edgeLabel;resizable=0;html=1;align=left;verticalAlign=bottom;" parent="on-PZeMUi1xkSiczZd_k-46" connectable="0" vertex="1">
          <mxGeometry x="-1" relative="1" as="geometry">
            <mxPoint x="-15" y="21" as="offset" />
          </mxGeometry>
        </mxCell>
        <mxCell id="on-PZeMUi1xkSiczZd_k-48" value="1" style="edgeLabel;resizable=0;html=1;align=right;verticalAlign=bottom;" parent="on-PZeMUi1xkSiczZd_k-46" connectable="0" vertex="1">
          <mxGeometry x="1" relative="1" as="geometry">
            <mxPoint x="12" y="39" as="offset" />
          </mxGeometry>
        </mxCell>
        <mxCell id="on-PZeMUi1xkSiczZd_k-66" value="notification" style="swimlane;fontStyle=0;childLayout=stackLayout;horizontal=1;startSize=26;fillColor=none;horizontalStack=0;resizeParent=1;resizeParentMax=0;resizeLast=0;collapsible=1;marginBottom=0;" parent="1" vertex="1">
          <mxGeometry x="720" y="-944" width="140" height="104" as="geometry">
            <mxRectangle x="520" y="-940" width="100" height="30" as="alternateBounds" />
          </mxGeometry>
        </mxCell>
        <mxCell id="on-PZeMUi1xkSiczZd_k-67" value="type" style="text;strokeColor=none;fillColor=none;align=left;verticalAlign=top;spacingLeft=4;spacingRight=4;overflow=hidden;rotatable=0;points=[[0,0.5],[1,0.5]];portConstraint=eastwest;" parent="on-PZeMUi1xkSiczZd_k-66" vertex="1">
          <mxGeometry y="26" width="140" height="26" as="geometry" />
        </mxCell>
        <mxCell id="-ewTBlvKlkQaXbtiI5r8-1" value="topic" style="text;strokeColor=none;fillColor=none;align=left;verticalAlign=top;spacingLeft=4;spacingRight=4;overflow=hidden;rotatable=0;points=[[0,0.5],[1,0.5]];portConstraint=eastwest;" parent="on-PZeMUi1xkSiczZd_k-66" vertex="1">
          <mxGeometry y="52" width="140" height="26" as="geometry" />
        </mxCell>
        <mxCell id="on-PZeMUi1xkSiczZd_k-68" value="text" style="text;strokeColor=none;fillColor=none;align=left;verticalAlign=top;spacingLeft=4;spacingRight=4;overflow=hidden;rotatable=0;points=[[0,0.5],[1,0.5]];portConstraint=eastwest;" parent="on-PZeMUi1xkSiczZd_k-66" vertex="1">
          <mxGeometry y="78" width="140" height="26" as="geometry" />
        </mxCell>
        <mxCell id="on-PZeMUi1xkSiczZd_k-71" value="" style="endArrow=none;html=1;startSize=12;startArrow=open;startFill=0;entryX=1;entryY=0.5;entryDx=0;entryDy=0;exitX=0;exitY=0.5;exitDx=0;exitDy=0;" parent="1" source="on-PZeMUi1xkSiczZd_k-67" target="RMtQjLJvcsIaxz_irh20-9" edge="1">
          <mxGeometry relative="1" as="geometry">
            <mxPoint x="875" y="-776" as="sourcePoint" />
            <mxPoint x="720" y="-930" as="targetPoint" />
          </mxGeometry>
        </mxCell>
        <mxCell id="on-PZeMUi1xkSiczZd_k-76" value="" style="endArrow=none;html=1;startSize=12;startArrow=open;startFill=0;entryX=1;entryY=0.5;entryDx=0;entryDy=0;exitX=0.43;exitY=1.203;exitDx=0;exitDy=0;exitPerimeter=0;" parent="1" source="on-PZeMUi1xkSiczZd_k-68" target="on-PZeMUi1xkSiczZd_k-22" edge="1">
          <mxGeometry relative="1" as="geometry">
            <mxPoint x="812" y="-831" as="sourcePoint" />
            <mxPoint x="725" y="-921" as="targetPoint" />
          </mxGeometry>
        </mxCell>
        <mxCell id="on-PZeMUi1xkSiczZd_k-84" value="1" style="edgeLabel;resizable=0;html=1;align=right;verticalAlign=bottom;" parent="1" connectable="0" vertex="1">
          <mxGeometry x="705" y="-950" as="geometry" />
        </mxCell>
        <mxCell id="on-PZeMUi1xkSiczZd_k-85" value="send" style="edgeLabel;html=1;align=center;verticalAlign=middle;resizable=0;points=[];" parent="1" vertex="1" connectable="0">
          <mxGeometry x="675" y="-970" as="geometry" />
        </mxCell>
        <mxCell id="on-PZeMUi1xkSiczZd_k-86" value="send" style="edgeLabel;html=1;align=center;verticalAlign=middle;resizable=0;points=[];" parent="1" vertex="1" connectable="0">
          <mxGeometry x="690" y="-770" as="geometry">
            <mxPoint x="2" y="-1" as="offset" />
          </mxGeometry>
        </mxCell>
        <mxCell id="mB4jdyPRa3ee71fcsnOd-1" value="Technical Support" style="swimlane;fontStyle=0;childLayout=stackLayout;horizontal=1;startSize=26;fillColor=none;horizontalStack=0;resizeParent=1;resizeParentMax=0;resizeLast=0;collapsible=1;marginBottom=0;" parent="1" vertex="1">
          <mxGeometry x="120" y="-790" width="160" height="78" as="geometry" />
        </mxCell>
        <mxCell id="mB4jdyPRa3ee71fcsnOd-2" value="specialization" style="text;strokeColor=none;fillColor=none;align=left;verticalAlign=top;spacingLeft=4;spacingRight=4;overflow=hidden;rotatable=0;points=[[0,0.5],[1,0.5]];portConstraint=eastwest;" parent="mB4jdyPRa3ee71fcsnOd-1" vertex="1">
          <mxGeometry y="26" width="160" height="26" as="geometry" />
        </mxCell>
        <mxCell id="mB4jdyPRa3ee71fcsnOd-3" value="position" style="text;strokeColor=none;fillColor=none;align=left;verticalAlign=top;spacingLeft=4;spacingRight=4;overflow=hidden;rotatable=0;points=[[0,0.5],[1,0.5]];portConstraint=eastwest;" parent="mB4jdyPRa3ee71fcsnOd-1" vertex="1">
          <mxGeometry y="52" width="160" height="26" as="geometry" />
        </mxCell>
        <mxCell id="mB4jdyPRa3ee71fcsnOd-4" value="" style="endArrow=none;html=1;startSize=12;startArrow=block;startFill=0;edgeStyle=orthogonalEdgeStyle;exitX=0;exitY=0.5;exitDx=0;exitDy=0;entryX=0.335;entryY=-0.041;entryDx=0;entryDy=0;entryPerimeter=0;" parent="1" edge="1" target="mB4jdyPRa3ee71fcsnOd-1" source="RMtQjLJvcsIaxz_irh20-4">
          <mxGeometry relative="1" as="geometry">
            <mxPoint x="280" y="-930" as="sourcePoint" />
            <mxPoint x="280" y="-576" as="targetPoint" />
            <Array as="points">
              <mxPoint x="170" y="-905" />
              <mxPoint x="170" y="-790" />
              <mxPoint x="174" y="-790" />
            </Array>
          </mxGeometry>
        </mxCell>
        <mxCell id="mB4jdyPRa3ee71fcsnOd-23" value="technical question" style="swimlane;fontStyle=0;childLayout=stackLayout;horizontal=1;startSize=26;fillColor=none;horizontalStack=0;resizeParent=1;resizeParentMax=0;resizeLast=0;collapsible=1;marginBottom=0;" parent="1" vertex="1">
          <mxGeometry x="270" y="-590" width="160" height="78" as="geometry" />
        </mxCell>
        <mxCell id="mB4jdyPRa3ee71fcsnOd-24" value="question" style="text;strokeColor=none;fillColor=none;align=left;verticalAlign=top;spacingLeft=4;spacingRight=4;overflow=hidden;rotatable=0;points=[[0,0.5],[1,0.5]];portConstraint=eastwest;" parent="mB4jdyPRa3ee71fcsnOd-23" vertex="1">
          <mxGeometry y="26" width="160" height="26" as="geometry" />
        </mxCell>
        <mxCell id="mB4jdyPRa3ee71fcsnOd-25" value="answer" style="text;strokeColor=none;fillColor=none;align=left;verticalAlign=top;spacingLeft=4;spacingRight=4;overflow=hidden;rotatable=0;points=[[0,0.5],[1,0.5]];portConstraint=eastwest;" parent="mB4jdyPRa3ee71fcsnOd-23" vertex="1">
          <mxGeometry y="52" width="160" height="26" as="geometry" />
        </mxCell>
        <mxCell id="mB4jdyPRa3ee71fcsnOd-26" value="" style="endArrow=none;html=1;startSize=12;startArrow=open;startFill=0;" parent="1" edge="1">
          <mxGeometry relative="1" as="geometry">
            <mxPoint x="270" y="-550" as="sourcePoint" />
            <mxPoint x="100" y="-1020" as="targetPoint" />
            <Array as="points">
              <mxPoint x="60" y="-550" />
              <mxPoint x="60" y="-1020" />
            </Array>
          </mxGeometry>
        </mxCell>
        <mxCell id="mB4jdyPRa3ee71fcsnOd-28" value="1" style="edgeLabel;resizable=0;html=1;align=right;verticalAlign=bottom;" parent="mB4jdyPRa3ee71fcsnOd-26" connectable="0" vertex="1">
          <mxGeometry x="1" relative="1" as="geometry">
            <mxPoint x="-20" y="-14" as="offset" />
          </mxGeometry>
        </mxCell>
        <mxCell id="mB4jdyPRa3ee71fcsnOd-29" value="" style="endArrow=none;html=1;startSize=12;startArrow=open;startFill=0;entryX=0.558;entryY=1;entryDx=0;entryDy=0;exitX=0.5;exitY=0;exitDx=0;exitDy=0;entryPerimeter=0;" parent="1" source="mB4jdyPRa3ee71fcsnOd-23" target="mB4jdyPRa3ee71fcsnOd-3" edge="1">
          <mxGeometry relative="1" as="geometry">
            <mxPoint x="540" y="-550" as="sourcePoint" />
            <mxPoint x="440" y="-885" as="targetPoint" />
          </mxGeometry>
        </mxCell>
        <mxCell id="mB4jdyPRa3ee71fcsnOd-31" value="1" style="edgeLabel;resizable=0;html=1;align=right;verticalAlign=bottom;" parent="mB4jdyPRa3ee71fcsnOd-29" connectable="0" vertex="1">
          <mxGeometry x="1" relative="1" as="geometry">
            <mxPoint x="61" y="72" as="offset" />
          </mxGeometry>
        </mxCell>
        <mxCell id="mB4jdyPRa3ee71fcsnOd-33" value="answer" style="edgeLabel;html=1;align=center;verticalAlign=middle;resizable=0;points=[];" parent="1" vertex="1" connectable="0">
          <mxGeometry x="350" y="-930" as="geometry">
            <mxPoint x="-58" y="250" as="offset" />
          </mxGeometry>
        </mxCell>
        <mxCell id="on-PZeMUi1xkSiczZd_k-42" value="calculate" style="text;html=1;strokeColor=none;fillColor=none;align=center;verticalAlign=middle;whiteSpace=wrap;rounded=0;" parent="1" vertex="1">
          <mxGeometry x="500" y="-892" width="60" height="30" as="geometry" />
        </mxCell>
        <mxCell id="lTObRBoPENkB2h7ewOfI-5" value="send" style="edgeLabel;html=1;align=center;verticalAlign=middle;resizable=0;points=[];" vertex="1" connectable="0" parent="1">
          <mxGeometry x="50" y="-830" as="geometry">
            <mxPoint x="-16" y="18" as="offset" />
          </mxGeometry>
        </mxCell>
        <mxCell id="lTObRBoPENkB2h7ewOfI-7" value="*" style="edgeLabel;resizable=0;html=1;align=left;verticalAlign=bottom;" connectable="0" vertex="1" parent="1">
          <mxGeometry x="250" y="-570" as="geometry" />
        </mxCell>
        <mxCell id="lTObRBoPENkB2h7ewOfI-8" value="*" style="edgeLabel;resizable=0;html=1;align=left;verticalAlign=bottom;" connectable="0" vertex="1" parent="1">
          <mxGeometry x="370" y="-600" as="geometry" />
        </mxCell>
      </root>
    </mxGraphModel>
  </diagram>
</mxfile>
